{"title":"Lewis S00E00 Pilot x264 RB58.mp4","uid":10344967,"size":743762557,"categoryP":"video","categoryS":"tv_shows","magnet":"?xt=urn:btih:13c731e5ffc43f2a08ee52388e54fbc27c0ecb2a&amp;dn=Lewis+S00E00+Pilot+x264+RB58.mp4&amp;tr=udp%3A%2F%2Ftracker.openbittorrent.com%3A80&amp;tr=udp%3A%2F%2Fopen.demonii.com%3A1337&amp;tr=udp%3A%2F%2Ftracker.coppersurfer.tk%3A6969&amp;tr=udp%3A%2F%2Fexodus.desync.com%3A6969","seeders":5,"leechers":0,"uploader":"RedBaron58","files":1,"time":1402591377,"description":"Lewis S00E00 The Pilot (Reputation) x264 mp4\n &lt;a href=&quot;\nhttp://www.imdb.com/title/tt0469870/&quot; rel=&quot;nofollow&quot; target=&quot;_NEW&quot;&gt;\nhttp://www.imdb.com/title/tt0469870/&lt;/a&gt;\n\nLewis is as a spin-off from Inspector Morse. Like that series, it was set primarily in Oxford. Kevin Whately\nreprised his character Robbie Lewis, who had been Morse's sergeant in the original series. \nLewis had now been promoted to detective inspector and was assisted by DS James Hathaway, portrayed \nby Laurence Fox.\n\n\nThank you for your kind comments and thumbs ups on my other torrents, your feedback is welcome.\n\n\nAbout the Episode:\nDI Lewis returns to Oxford after several years' absence and is reluctantly assigned by his new boss, \nDCS Innocent, to the murder of an Oxford mathematics student who was shot while participating in \na sleep study.\n\n\nI hope you enjoy.\n\n\nTechnical:\n\nGeneral\nComplete name                            : G:Lewis S00E00 Pilot x264 RB58.mp4\nFormat                                   : MPEG-4\nFormat profile                           : Base Media / Version 2\nCodec ID                                 : mp42\nFile size                                : 709 MiB\nDuration                                 : 1h 33mn\nOverall bit rate mode                    : Variable\nOverall bit rate                         : 1 064 Kbps\nEncoded date                             : UTC 2014-06-12 10:12:12\nTagged date                              : UTC 2014-06-12 10:34:13\nWriting application                      : HandBrake 0.9.8 2012071700\n\nVideo\nID                                       : 1\nFormat                                   : AVC\nFormat/Info                              : Advanced Video Codec\nFormat profile                           : &lt;a class=&quot;__cf_email__&quot; href=&quot;/cdn-cgi/l/email-protection&quot; data-cfemail=&quot;7a371b13143a3649544a&quot;&gt;[email&amp;#160;protected]&lt;/a&gt;&lt;script cf-hash='f9e31' type=&quot;text/javascript&quot;&gt;\n/* &lt;![CDATA[ */!function(){try{var t=&quot;currentScript&quot;in document?document.currentScript:function(){for(var t=document.getElementsByTagName(&quot;script&quot;),e=t.length;e--;)if(t[e].getAttribute(&quot;cf-hash&quot;))return t[e]}();if(t&amp;&amp;t.previousSibling){var e,r,n,i,c=t.previousSibling,a=c.getAttribute(&quot;data-cfemail&quot;);if(a){for(e=&quot;&quot;,r=parseInt(a.substr(0,2),16),n=2;a.length-n;n+=2)i=parseInt(a.substr(n,2),16)^r,e+=String.fromCharCode(i);e=document.createTextNode(e),c.parentNode.replaceChild(e,c)}}}catch(u){}}();/* ]]&gt; */&lt;/script&gt;\nFormat settings, CABAC                   : Yes\nFormat settings, ReFrames                : 4 frames\nCodec ID                                 : avc1\nCodec ID/Info                            : Advanced Video Coding\nDuration                                 : 1h 33mn\nBit rate mode                            : Variable\nBit rate                                 : 900 Kbps\nWidth                                    : 716 pixels\nHeight                                   : 576 pixels\nDisplay aspect ratio                     : 16:9\nFrame rate mode                          : Variable\nFrame rate                               : 25.000 fps\nMinimum frame rate                       : 8.333 fps\nMaximum frame rate                       : 25.000 fps\nColor space                              : YUV\nChroma subsampling                       : 4:2:0\nBit depth                                : 8 bits\nScan type                                : Progressive\nBits/(Pixel*Frame)                       : 0.087\nStream size                              : 600 MiB (85%)\nWriting library                          : x264 core 120\nEncoding settings                        : cabac=1 / ref=1 / deblock=1:0:0\nEncoded date                             : UTC 2014-06-12 10:12:12\nTagged date                              : UTC 2014-06-12 10:34:13\nColor primaries                          : BT.601 NTSC\nTransfer characteristics                 : BT.709\nMatrix coefficients                      : BT.601\n\nAudio\nID                                       : 2\nFormat                                   : AAC\nFormat/Info                              : Advanced Audio Codec\nFormat profile                           : LC\nCodec ID                                 : 40\nDuration                                 : 1h 33mn\nBit rate mode                            : Variable\nBit rate                                 : 160 Kbps\nMaximum bit rate                         : 198 Kbps\nChannel(s)                               : 2 channels\nChannel positions                        : Front: L R\nSampling rate                            : 48.0 KHz\nCompression mode                         : Lossy\nDelay relative to video                  : 160ms\nStream size                              : 106 MiB (15%)\nLanguage                                 : English\nEncoded date                             : UTC 2014-06-12 10:12:12\nTagged date                              : UTC 2014-06-12 10:34:12","torrent":{"xt":"urn:btih:13c731e5ffc43f2a08ee52388e54fbc27c0ecb2a","amp;dn":"Lewis+S00E00+Pilot+x264+RB58.mp4","amp;tr":["udp%3A%2F%2Ftracker.openbittorrent.com%3A80","udp%3A%2F%2Fopen.demonii.com%3A1337","udp%3A%2F%2Ftracker.coppersurfer.tk%3A6969","udp%3A%2F%2Fexodus.desync.com%3A6969"],"infoHash":"13c731e5ffc43f2a08ee52388e54fbc27c0ecb2a","infoHashBuffer":{"type":"Buffer","data":[19,199,49,229,255,196,63,42,8,238,82,56,142,84,251,194,124,14,203,42]},"announce":[],"urlList":[]}}